<svg width="80" height="80" viewBox="0 0 80 80" fill="none" xmlns="http://www.w3.org/2000/svg">
  <!-- Left Book (tilted left) -->
  <g transform="rotate(-12, 20, 50)">
    <rect x="8" y="15" width="16" height="50" rx="1.5" fill="#1a3a5c"/>
    <!-- Ribbed spine top -->
    <rect x="8" y="15" width="16" height="2" fill="#3d6a8a"/>
    <rect x="8" y="18" width="16" height="1.5" fill="#2a4a6a"/>
    <rect x="8" y="20.5" width="16" height="1.5" fill="#3d6a8a"/>
    <rect x="8" y="23" width="16" height="1.5" fill="#2a4a6a"/>
    <!-- Constellation pattern -->
    <circle cx="12" cy="32" r="1.5" fill="#5b9bd5"/>
    <circle cx="18" cy="38" r="1.5" fill="#5b9bd5"/>
    <circle cx="14" cy="45" r="1.5" fill="#5b9bd5"/>
    <circle cx="20" cy="52" r="1.5" fill="#5b9bd5"/>
    <circle cx="11" cy="55" r="1" fill="#5b9bd5"/>
    <line x1="12" y1="32" x2="18" y2="38" stroke="#5b9bd5" stroke-width="0.8"/>
    <line x1="18" y1="38" x2="14" y2="45" stroke="#5b9bd5" stroke-width="0.8"/>
    <line x1="14" y1="45" x2="20" y2="52" stroke="#5b9bd5" stroke-width="0.8"/>
    <line x1="14" y1="45" x2="11" y2="55" stroke="#5b9bd5" stroke-width="0.8"/>
  </g>

  <!-- Middle Book (slightly tilted) -->
  <g transform="rotate(-2, 40, 50)">
    <rect x="28" y="12" width="18" height="55" rx="1.5" fill="#1a3a5c"/>
    <!-- Ribbed spine top -->
    <rect x="28" y="12" width="18" height="2" fill="#3d6a8a"/>
    <rect x="28" y="15" width="18" height="1.5" fill="#2a4a6a"/>
    <rect x="28" y="17.5" width="18" height="1.5" fill="#3d6a8a"/>
    <rect x="28" y="20" width="18" height="1.5" fill="#2a4a6a"/>
    <!-- Constellation pattern (more stars) -->
    <circle cx="33" cy="30" r="1.5" fill="#5b9bd5"/>
    <circle cx="40" cy="35" r="1.5" fill="#5b9bd5"/>
    <circle cx="35" cy="42" r="1.5" fill="#5b9bd5"/>
    <circle cx="42" cy="48" r="1.5" fill="#5b9bd5"/>
    <circle cx="34" cy="54" r="1.5" fill="#5b9bd5"/>
    <circle cx="41" cy="58" r="1" fill="#5b9bd5"/>
    <circle cx="38" cy="62" r="1" fill="#5b9bd5"/>
    <line x1="33" y1="30" x2="40" y2="35" stroke="#5b9bd5" stroke-width="0.8"/>
    <line x1="40" y1="35" x2="35" y2="42" stroke="#5b9bd5" stroke-width="0.8"/>
    <line x1="35" y1="42" x2="42" y2="48" stroke="#5b9bd5" stroke-width="0.8"/>
    <line x1="42" y1="48" x2="34" y2="54" stroke="#5b9bd5" stroke-width="0.8"/>
    <line x1="34" y1="54" x2="41" y2="58" stroke="#5b9bd5" stroke-width="0.8"/>
    <line x1="41" y1="58" x2="38" y2="62" stroke="#5b9bd5" stroke-width="0.8"/>
  </g>

  <!-- Right Book (tilted right) -->
  <g transform="rotate(12, 60, 50)">
    <rect x="52" y="15" width="16" height="50" rx="1.5" fill="#1a3a5c"/>
    <!-- Ribbed spine top -->
    <rect x="52" y="15" width="16" height="2" fill="#3d6a8a"/>
    <rect x="52" y="18" width="16" height="1.5" fill="#2a4a6a"/>
    <rect x="52" y="20.5" width="16" height="1.5" fill="#3d6a8a"/>
    <rect x="52" y="23" width="16" height="1.5" fill="#2a4a6a"/>
    <!-- Constellation pattern -->
    <circle cx="57" cy="32" r="1.5" fill="#5b9bd5"/>
    <circle cx="63" cy="37" r="1.5" fill="#5b9bd5"/>
    <circle cx="58" cy="44" r="1.5" fill="#5b9bd5"/>
    <circle cx="64" cy="50" r="1.5" fill="#5b9bd5"/>
    <circle cx="60" cy="56" r="1" fill="#5b9bd5"/>
    <line x1="57" y1="32" x2="63" y2="37" stroke="#5b9bd5" stroke-width="0.8"/>
    <line x1="63" y1="37" x2="58" y2="44" stroke="#5b9bd5" stroke-width="0.8"/>
    <line x1="58" y1="44" x2="64" y2="50" stroke="#5b9bd5" stroke-width="0.8"/>
    <line x1="64" y1="50" x2="60" y2="56" stroke="#5b9bd5" stroke-width="0.8"/>
  </g>
</svg>
